<?xml version="1.0" encoding="UTF-8" standalone="no"?>
<!DOCTYPE svg PUBLIC "-//W3C//DTD SVG 1.1//EN" "http://www.w3.org/Graphics/SVG/1.1/DTD/svg11.dtd">
<svg width="100%" height="100%" viewBox="0 0 1500 650" version="1.1" xmlns="http://www.w3.org/2000/svg" xmlns:xlink="http://www.w3.org/1999/xlink" xml:space="preserve" style="fill-rule:evenodd;clip-rule:evenodd;stroke-linejoin:round;stroke-miterlimit:1.41421;">
    <g transform="matrix(1.04491,0,0,1.04491,658.263,-182.271)">
        <g transform="matrix(5.03561,0,0,5.03561,-2711.84,-2041.4)">
            <path d="M590.245,510.948L590.245,503.248L577.645,495.648L577.645,495.448L590.245,487.848L590.245,480.148L570.645,492.648L570.645,498.448L590.245,510.948Z" style="fill:rgb(44,62,80);fill-rule:nonzero;"/>
        </g>
        <g transform="matrix(5.03561,0,0,5.03561,-2442.84,-2041.74)">
            <path d="M569.645,510.948L589.245,498.448L589.245,492.648L569.645,480.148L569.645,487.848L582.245,495.448L582.245,495.648L569.645,503.248L569.645,510.948Z" style="fill:rgb(44,62,80);fill-rule:nonzero;"/>
        </g>
        <g transform="matrix(5.48533,-1.6624,1.6624,5.48533,55.136,342.088)">
            <path d="M61.609,14.254C63.98,14.145 65.812,12.129 65.699,9.762C65.59,7.391 63.578,5.555 61.207,5.668C58.836,5.777 57,7.793 57.113,10.164C57.141,10.805 57.32,11.398 57.598,11.93L53.793,9.023C53.184,8.562 52.316,8.676 51.855,9.285C51.395,9.891 51.508,10.758 52.113,11.223L56.039,14.223L23.93,53.816C23.93,53.816 17.922,56.492 14.82,48.711C14.195,47.152 16.891,48.051 16.891,48.051L15.402,38.176L9.297,45.637C9.297,45.637 10.973,46.379 11.23,47.598C11.492,48.816 11.965,55.992 17.871,60.301C18.551,60.797 18.629,65.457 18.629,65.582L18.617,65.602C18.617,65.602 23.258,64.406 23.926,64.938C29.641,69.496 36.688,68.059 37.934,67.992C39.176,67.922 40.332,69.344 40.332,69.344L45.918,61.484L36.004,62.656C36.004,62.656 37.582,65.02 35.914,64.828C27.586,63.887 28.582,57.387 28.582,57.387L58.309,15.969L58.152,15.832L61.633,18.492C62.238,18.957 63.109,18.84 63.57,18.234C64.031,17.625 63.918,16.762 63.312,16.297L60.504,14.148C60.859,14.227 61.227,14.273 61.609,14.254ZM58.953,10.078C58.891,8.723 59.938,7.57 61.293,7.508C62.648,7.441 63.797,8.492 63.863,9.848C63.926,11.203 62.879,12.352 61.523,12.418C60.164,12.477 59.016,11.43 58.953,10.078Z" style="fill:rgb(66,185,131);fill-rule:nonzero;"/>
        </g>
    </g>
    <g transform="matrix(0.958153,0,0,0.958153,-299.086,-188.305)">
        <path d="M452.831,321.49L472.431,321.49L497.831,391.89L507.431,418.69L508.231,418.69L517.431,391.89L542.631,321.49L562.231,321.49L562.231,452.69L546.431,452.69L546.431,380.49C546.431,374.623 546.664,368.156 547.131,361.09C547.598,354.023 548.098,347.556 548.631,341.69L547.831,341.69L537.231,370.89L512.031,439.49L502.631,439.49L477.231,370.89L466.831,341.69L466.031,341.69C466.431,347.556 466.898,354.023 467.431,361.09C467.964,368.156 468.231,374.623 468.231,380.49L468.231,452.69L452.831,452.69L452.831,321.49Z" style="fill:rgb(44,62,80);fill-rule:nonzero;"/>
        <path d="M589.431,404.29C589.431,396.156 590.664,388.923 593.131,382.59C595.598,376.256 598.898,370.89 603.031,366.49C607.164,362.09 611.931,358.756 617.331,356.49C622.731,354.223 628.431,353.09 634.431,353.09C640.431,353.09 646.131,354.223 651.531,356.49C656.931,358.756 661.698,362.09 665.831,366.49C669.964,370.89 673.264,376.256 675.731,382.59C678.198,388.923 679.431,396.156 679.431,404.29C679.431,412.29 678.198,419.456 675.731,425.79C673.264,432.123 669.964,437.456 665.831,441.79C661.698,446.123 656.931,449.423 651.531,451.69C646.131,453.956 640.431,455.09 634.431,455.09C628.431,455.09 622.731,453.956 617.331,451.69C611.931,449.423 607.164,446.123 603.031,441.79C598.898,437.456 595.598,432.123 593.131,425.79C590.664,419.456 589.431,412.29 589.431,404.29ZM606.431,404.29C606.431,409.89 607.098,414.956 608.431,419.49C609.764,424.023 611.664,427.923 614.131,431.19C616.598,434.456 619.564,436.99 623.031,438.79C626.498,440.59 630.298,441.49 634.431,441.49C638.564,441.49 642.364,440.59 645.831,438.79C649.298,436.99 652.264,434.456 654.731,431.19C657.198,427.923 659.098,424.023 660.431,419.49C661.764,414.956 662.431,409.89 662.431,404.29C662.431,398.69 661.764,393.59 660.431,388.99C659.098,384.39 657.198,380.423 654.731,377.09C652.264,373.756 649.298,371.19 645.831,369.39C642.364,367.59 638.564,366.69 634.431,366.69C630.298,366.69 626.498,367.59 623.031,369.39C619.564,371.19 616.598,373.756 614.131,377.09C611.664,380.423 609.764,384.39 608.431,388.99C607.098,393.59 606.431,398.69 606.431,404.29Z" style="fill:rgb(44,62,80);fill-rule:nonzero;"/>
        <path d="M713.431,335.49C710.231,335.49 707.531,334.49 705.331,332.49C703.131,330.49 702.031,327.956 702.031,324.89C702.031,321.69 703.131,319.123 705.331,317.19C707.531,315.256 710.231,314.29 713.431,314.29C716.631,314.29 719.331,315.256 721.531,317.19C723.731,319.123 724.831,321.69 724.831,324.89C724.831,327.956 723.731,330.49 721.531,332.49C719.331,334.49 716.631,335.49 713.431,335.49ZM705.031,355.49L721.431,355.49L721.431,452.69L705.031,452.69L705.031,355.49Z" style="fill:rgb(44,62,80);fill-rule:nonzero;"/>
        <path d="M754.231,355.49L767.831,355.49L769.231,369.49L769.831,369.49C774.498,364.823 779.398,360.923 784.531,357.79C789.664,354.656 795.631,353.09 802.431,353.09C812.698,353.09 820.198,356.29 824.931,362.69C829.664,369.09 832.031,378.556 832.031,391.09L832.031,452.69L815.631,452.69L815.631,393.29C815.631,384.09 814.164,377.456 811.231,373.39C808.298,369.323 803.631,367.29 797.231,367.29C792.164,367.29 787.698,368.556 783.831,371.09C779.964,373.623 775.564,377.356 770.631,382.29L770.631,452.69L754.231,452.69L754.231,355.49Z" style="fill:rgb(44,62,80);fill-rule:nonzero;"/>
        <path d="M368.231,621.49L385.431,621.49L399.231,692.89C400.431,700.09 401.698,707.156 403.031,714.09C404.364,721.023 405.631,728.09 406.831,735.29L407.631,735.29C409.098,728.09 410.631,720.99 412.231,713.99C413.831,706.99 415.364,699.956 416.831,692.89L435.031,621.49L450.231,621.49L468.431,692.89C470.031,699.823 471.631,706.823 473.231,713.89C474.831,720.956 476.431,728.09 478.031,735.29L478.831,735.29C480.031,728.09 481.231,720.99 482.431,713.99C483.631,706.99 484.898,699.956 486.231,692.89L500.031,621.49L516.031,621.49L488.831,752.69L468.831,752.69L449.031,673.69C447.831,668.623 446.731,663.656 445.731,658.79C444.731,653.923 443.698,648.956 442.631,643.89L441.831,643.89C440.764,648.956 439.664,653.923 438.531,658.79C437.398,663.656 436.298,668.623 435.231,673.69L415.831,752.69L396.031,752.69L368.231,621.49Z" style="fill:rgb(44,62,80);fill-rule:nonzero;"/>
        <path d="M530.031,704.29C530.031,696.156 531.264,688.923 533.731,682.59C536.198,676.256 539.498,670.89 543.631,666.49C547.764,662.09 552.531,658.756 557.931,656.49C563.331,654.223 569.031,653.09 575.031,653.09C581.031,653.09 586.731,654.223 592.131,656.49C597.531,658.756 602.298,662.09 606.431,666.49C610.564,670.89 613.864,676.256 616.331,682.59C618.798,688.923 620.031,696.156 620.031,704.29C620.031,712.29 618.798,719.456 616.331,725.79C613.864,732.123 610.564,737.456 606.431,741.79C602.298,746.123 597.531,749.423 592.131,751.69C586.731,753.956 581.031,755.09 575.031,755.09C569.031,755.09 563.331,753.956 557.931,751.69C552.531,749.423 547.764,746.123 543.631,741.79C539.498,737.456 536.198,732.123 533.731,725.79C531.264,719.456 530.031,712.29 530.031,704.29ZM547.031,704.29C547.031,709.89 547.698,714.956 549.031,719.49C550.364,724.023 552.264,727.923 554.731,731.19C557.198,734.456 560.164,736.99 563.631,738.79C567.098,740.59 570.898,741.49 575.031,741.49C579.164,741.49 582.964,740.59 586.431,738.79C589.898,736.99 592.864,734.456 595.331,731.19C597.798,727.923 599.698,724.023 601.031,719.49C602.364,714.956 603.031,709.89 603.031,704.29C603.031,698.69 602.364,693.59 601.031,688.99C599.698,684.39 597.798,680.423 595.331,677.09C592.864,673.756 589.898,671.19 586.431,669.39C582.964,667.59 579.164,666.69 575.031,666.69C570.898,666.69 567.098,667.59 563.631,669.39C560.164,671.19 557.198,673.756 554.731,677.09C552.264,680.423 550.364,684.39 549.031,688.99C547.698,693.59 547.031,698.69 547.031,704.29Z" style="fill:rgb(44,62,80);fill-rule:nonzero;"/>
        <path d="M645.631,655.49L659.231,655.49L660.631,673.09L661.231,673.09C664.564,666.956 668.598,662.09 673.331,658.49C678.064,654.89 683.231,653.09 688.831,653.09C692.698,653.09 696.164,653.756 699.231,655.09L696.031,669.49C694.431,668.956 692.964,668.556 691.631,668.29C690.298,668.023 688.631,667.89 686.631,667.89C682.498,667.89 678.198,669.556 673.731,672.89C669.264,676.223 665.364,682.023 662.031,690.29L662.031,752.69L645.631,752.69L645.631,655.49Z" style="fill:rgb(44,62,80);fill-rule:nonzero;"/>
        <path d="M715.031,610.29L731.431,610.29L731.431,734.29C731.431,736.956 731.898,738.823 732.831,739.89C733.764,740.956 734.831,741.49 736.031,741.49C736.564,741.49 737.064,741.49 737.531,741.49C737.998,741.49 738.698,741.356 739.631,741.09L741.831,753.49C740.764,754.023 739.498,754.423 738.031,754.69C736.564,754.956 734.698,755.09 732.431,755.09C726.164,755.09 721.698,753.223 719.031,749.49C716.364,745.756 715.031,740.29 715.031,733.09L715.031,610.29Z" style="fill:rgb(44,62,80);fill-rule:nonzero;"/>
        <path d="M759.031,704.29C759.031,696.423 760.198,689.323 762.531,682.99C764.864,676.656 767.964,671.29 771.831,666.89C775.698,662.49 780.164,659.09 785.231,656.69C790.298,654.29 795.631,653.09 801.231,653.09C806.831,653.09 811.698,654.09 815.831,656.09C819.964,658.09 824.164,660.823 828.431,664.29L827.631,647.69L827.631,610.29L844.231,610.29L844.231,752.69L830.631,752.69L829.231,741.29L828.631,741.29C824.764,745.023 820.331,748.256 815.331,750.99C810.331,753.723 804.964,755.09 799.231,755.09C786.964,755.09 777.198,750.69 769.931,741.89C762.664,733.09 759.031,720.556 759.031,704.29ZM776.031,704.09C776.031,715.823 778.364,724.956 783.031,731.49C787.698,738.023 794.298,741.29 802.831,741.29C807.364,741.29 811.631,740.19 815.631,737.99C819.631,735.79 823.631,732.423 827.631,727.89L827.631,677.09C823.498,673.356 819.531,670.723 815.731,669.19C811.931,667.656 808.031,666.89 804.031,666.89C800.164,666.89 796.531,667.79 793.131,669.59C789.731,671.39 786.764,673.923 784.231,677.19C781.698,680.456 779.698,684.356 778.231,688.89C776.764,693.423 776.031,698.49 776.031,704.09Z" style="fill:rgb(44,62,80);fill-rule:nonzero;"/>
        <path d="M881.631,637.49L881.231,618.69L897.831,618.69L897.431,637.49L895.231,713.09L883.831,713.09L881.631,637.49ZM877.631,742.69C877.631,738.823 878.798,735.723 881.131,733.39C883.464,731.056 886.298,729.89 889.631,729.89C892.831,729.89 895.598,731.056 897.931,733.39C900.264,735.723 901.431,738.823 901.431,742.69C901.431,746.29 900.264,749.256 897.931,751.59C895.598,753.923 892.831,755.09 889.631,755.09C886.298,755.09 883.464,753.923 881.131,751.59C878.798,749.256 877.631,746.29 877.631,742.69Z" style="fill:rgb(44,62,80);fill-rule:nonzero;"/>
    </g>
    <g transform="matrix(1,0,0,1.81418,-13.7183,-220.581)">
        <rect x="59.676" y="292.107" width="538.324" height="17.248" style="fill:rgb(66,185,131);"/>
    </g>
</svg>
